<svg xmlns="http://www.w3.org/2000/svg" width="29.21" height="29.61" viewBox="0 0 29.21 29.61"><defs><style>.cls-1{fill:#223654;}</style></defs><title>Fichier 68</title><g id="Calque_2" data-name="Calque 2"><g id="icones_contenu" data-name="icones contenu"><path class="cls-1" d="M23.08,12.71a1.16,1.16,0,0,0-1.15,1.15V27.32H2.29V7.22H15.35a1.15,1.15,0,0,0,0-2.29H0V29.61H24.22V13.86A1.15,1.15,0,0,0,23.08,12.71Z"/><path class="cls-1" d="M18.78,0a1.15,1.15,0,0,0,0,2.29h6.54l-14,14.17a1.14,1.14,0,0,0,0,1.62,1.13,1.13,0,0,0,.8.33,1.14,1.14,0,0,0,.82-.34l14-14.14v6.38a1.15,1.15,0,0,0,2.29,0V0Z"/></g></g></svg>